<?xml version="1.0" encoding="UTF-8" standalone="no"?>
<!DOCTYPE svg PUBLIC "-//W3C//DTD SVG 1.1//EN"
 "http://www.w3.org/Graphics/SVG/1.1/DTD/svg11.dtd">
<!-- Generated by graphviz version 2.43.0 (0)
 -->
<!-- Title: G Pages: 1 -->
<svg width="761pt" height="485pt"
 viewBox="0.00 0.00 761.00 485.00" xmlns="http://www.w3.org/2000/svg" xmlns:xlink="http://www.w3.org/1999/xlink">
<g id="graph0" class="graph" transform="scale(1 1) rotate(0) translate(4 481)">
<title>G</title>
<polygon fill="white" stroke="transparent" points="-4,4 -4,-481 757,-481 757,4 -4,4"/>
<!-- MULLE_FETCH_SEARCH_PATH -->
<g id="node1" class="node">
<title>MULLE_FETCH_SEARCH_PATH</title>
<polygon fill="none" stroke="black" points="257,-440.5 257,-476.5 502,-476.5 502,-440.5 257,-440.5"/>
<text text-anchor="middle" x="379.5" y="-454.8" font-family="Times,serif" font-size="14.00">MULLE_FETCH_SEARCH_PATH</text>
</g>
<!-- src -->
<g id="node4" class="node">
<title>src</title>
<polygon fill="none" stroke="black" points="412.5,-147.5 412.5,-183.5 466.5,-183.5 466.5,-147.5 412.5,-147.5"/>
<text text-anchor="middle" x="439.5" y="-161.8" font-family="Times,serif" font-size="14.00">src</text>
</g>
<!-- MULLE_FETCH_SEARCH_PATH&#45;&gt;src -->
<g id="edge1" class="edge">
<title>MULLE_FETCH_SEARCH_PATH&#45;&gt;src</title>
<path fill="none" stroke="black" stroke-dasharray="1,5" d="M450.78,-440.42C476.13,-429.75 498.5,-412.75 498.5,-386 498.5,-386 498.5,-386 498.5,-238 498.5,-219.3 486.35,-202.85 473.07,-190.45"/>
<polygon fill="black" stroke="black" points="475.06,-187.54 465.21,-183.64 470.47,-192.83 475.06,-187.54"/>
<text text-anchor="middle" x="539" y="-308.3" font-family="Times,serif" font-size="14.00"> references</text>
</g>
<!-- src2 -->
<g id="node5" class="node">
<title>src2</title>
<polygon fill="none" stroke="black" points="227.5,-147.5 227.5,-183.5 281.5,-183.5 281.5,-147.5 227.5,-147.5"/>
<text text-anchor="middle" x="254.5" y="-161.8" font-family="Times,serif" font-size="14.00">src</text>
</g>
<!-- MULLE_FETCH_SEARCH_PATH&#45;&gt;src2 -->
<g id="edge2" class="edge">
<title>MULLE_FETCH_SEARCH_PATH&#45;&gt;src2</title>
<path fill="none" stroke="black" stroke-dasharray="1,5" d="M281.86,-440.35C256.17,-429.9 235.5,-413.07 235.5,-386 235.5,-386 235.5,-386 235.5,-238 235.5,-222.75 239.59,-206.27 243.97,-192.97"/>
<polygon fill="black" stroke="black" points="247.28,-194.1 247.32,-183.5 240.68,-191.76 247.28,-194.1"/>
<text text-anchor="middle" x="276" y="-308.3" font-family="Times,serif" font-size="14.00"> references</text>
</g>
<!-- / -->
<g id="node8" class="node">
<title>/</title>
<polygon fill="none" stroke="gray" points="406.5,-403 403.5,-407 382.5,-407 379.5,-403 352.5,-403 352.5,-367 406.5,-367 406.5,-403"/>
<text text-anchor="middle" x="379.5" y="-381.3" font-family="Times,serif" font-size="14.00" fill="gray">/</text>
</g>
<!-- MULLE_FETCH_SEARCH_PATH&#45;&gt;/ -->
<!-- MULLE_FETCH_ARCHIVE_DIR -->
<g id="node2" class="node">
<title>MULLE_FETCH_ARCHIVE_DIR</title>
<polygon fill="none" stroke="black" points="0,-440.5 0,-476.5 239,-476.5 239,-440.5 0,-440.5"/>
<text text-anchor="middle" x="119.5" y="-454.8" font-family="Times,serif" font-size="14.00">MULLE_FETCH_ARCHIVE_DIR</text>
</g>
<!-- archive -->
<g id="node6" class="node">
<title>archive</title>
<polygon fill="none" stroke="black" points="231,-0.5 231,-36.5 300,-36.5 300,-0.5 231,-0.5"/>
<text text-anchor="middle" x="265.5" y="-14.8" font-family="Times,serif" font-size="14.00">archive</text>
</g>
<!-- MULLE_FETCH_ARCHIVE_DIR&#45;&gt;archive -->
<g id="edge3" class="edge">
<title>MULLE_FETCH_ARCHIVE_DIR&#45;&gt;archive</title>
<path fill="none" stroke="black" stroke-dasharray="1,5" d="M119.5,-440.45C119.5,-425.97 119.5,-404.62 119.5,-386 119.5,-386 119.5,-386 119.5,-91 119.5,-45.27 177.97,-28.79 220.91,-22.85"/>
<polygon fill="black" stroke="black" points="221.41,-26.31 230.9,-21.61 220.55,-19.36 221.41,-26.31"/>
<text text-anchor="middle" x="160" y="-235.3" font-family="Times,serif" font-size="14.00"> references</text>
</g>
<!-- MULLE_FETCH_MIRROR_DIR -->
<g id="node3" class="node">
<title>MULLE_FETCH_MIRROR_DIR</title>
<polygon fill="none" stroke="black" points="520,-440.5 520,-476.5 753,-476.5 753,-440.5 520,-440.5"/>
<text text-anchor="middle" x="636.5" y="-454.8" font-family="Times,serif" font-size="14.00">MULLE_FETCH_MIRROR_DIR</text>
</g>
<!-- git&#45;mirror -->
<g id="node7" class="node">
<title>git&#45;mirror</title>
<polygon fill="none" stroke="black" points="563,-0.5 563,-36.5 650,-36.5 650,-0.5 563,-0.5"/>
<text text-anchor="middle" x="606.5" y="-14.8" font-family="Times,serif" font-size="14.00">git&#45;mirror</text>
</g>
<!-- MULLE_FETCH_MIRROR_DIR&#45;&gt;git&#45;mirror -->
<g id="edge4" class="edge">
<title>MULLE_FETCH_MIRROR_DIR&#45;&gt;git&#45;mirror</title>
<path fill="none" stroke="black" stroke-dasharray="1,5" d="M636.5,-440.45C636.5,-425.97 636.5,-404.62 636.5,-386 636.5,-386 636.5,-386 636.5,-91 636.5,-75.08 630.09,-58.6 623.2,-45.49"/>
<polygon fill="black" stroke="black" points="626.15,-43.58 618.18,-36.59 620.05,-47.02 626.15,-43.58"/>
<text text-anchor="middle" x="677" y="-235.3" font-family="Times,serif" font-size="14.00"> references</text>
</g>
<!-- project -->
<g id="node9" class="node">
<title>project</title>
<polygon fill="none" stroke="blue" stroke-width="2" points="470,-110 467,-114 446,-114 443,-110 403,-110 403,-74 470,-74 470,-110"/>
<text text-anchor="middle" x="436.5" y="-88.3" font-family="Times,serif" font-size="14.00" fill="blue">project</text>
</g>
<!-- src&#45;&gt;project -->
<g id="edge16" class="edge">
<title>src&#45;&gt;project</title>
<path fill="none" stroke="gray" stroke-dasharray="1,5" d="M438.77,-147.19C438.3,-135.95 437.69,-121.36 437.22,-110.15"/>
</g>
<!-- usr -->
<g id="node13" class="node">
<title>usr</title>
<polygon fill="none" stroke="gray" points="388.5,-330 385.5,-334 364.5,-334 361.5,-330 334.5,-330 334.5,-294 388.5,-294 388.5,-330"/>
<text text-anchor="middle" x="361.5" y="-308.3" font-family="Times,serif" font-size="14.00" fill="gray">usr</text>
</g>
<!-- /&#45;&gt;usr -->
<g id="edge10" class="edge">
<title>/&#45;&gt;usr</title>
<path fill="none" stroke="gray" stroke-dasharray="1,5" d="M375.14,-366.81C372.31,-355.65 368.64,-341.16 365.82,-330.03"/>
</g>
<!-- home -->
<g id="node15" class="node">
<title>home</title>
<polygon fill="none" stroke="gray" points="462.5,-330 459.5,-334 438.5,-334 435.5,-330 406.5,-330 406.5,-294 462.5,-294 462.5,-330"/>
<text text-anchor="middle" x="434.5" y="-308.3" font-family="Times,serif" font-size="14.00" fill="gray">home</text>
</g>
<!-- /&#45;&gt;home -->
<g id="edge13" class="edge">
<title>/&#45;&gt;home</title>
<path fill="none" stroke="gray" stroke-dasharray="1,5" d="M392.81,-366.81C401.46,-355.65 412.69,-341.16 421.31,-330.03"/>
</g>
<!-- user -->
<g id="node10" class="node">
<title>user</title>
<polygon fill="none" stroke="gray" points="466.5,-257 463.5,-261 442.5,-261 439.5,-257 412.5,-257 412.5,-221 466.5,-221 466.5,-257"/>
<text text-anchor="middle" x="439.5" y="-235.3" font-family="Times,serif" font-size="14.00" fill="gray">user</text>
</g>
<!-- user&#45;&gt;src -->
<g id="edge15" class="edge">
<title>user&#45;&gt;src</title>
<path fill="none" stroke="gray" stroke-dasharray="1,5" d="M439.5,-220.69C439.5,-209.45 439.5,-194.86 439.5,-183.65"/>
</g>
<!-- .cache -->
<g id="node11" class="node">
<title>.cache</title>
<polygon fill="none" stroke="gray" points="552.5,-183.5 549.5,-187.5 528.5,-187.5 525.5,-183.5 490.5,-183.5 490.5,-147.5 552.5,-147.5 552.5,-183.5"/>
<text text-anchor="middle" x="521.5" y="-161.8" font-family="Times,serif" font-size="14.00" fill="gray">.cache</text>
</g>
<!-- user&#45;&gt;.cache -->
<g id="edge6" class="edge">
<title>user&#45;&gt;.cache</title>
<path fill="none" stroke="gray" stroke-dasharray="1,5" d="M459.35,-220.69C472.24,-209.45 488.98,-194.86 501.83,-183.65"/>
</g>
<!-- mulle&#45;fetch -->
<g id="node12" class="node">
<title>mulle&#45;fetch</title>
<polygon fill="none" stroke="gray" points="585,-110 582,-114 561,-114 558,-110 488,-110 488,-74 585,-74 585,-110"/>
<text text-anchor="middle" x="536.5" y="-88.3" font-family="Times,serif" font-size="14.00" fill="gray">mulle&#45;fetch</text>
</g>
<!-- .cache&#45;&gt;mulle&#45;fetch -->
<g id="edge7" class="edge">
<title>.cache&#45;&gt;mulle&#45;fetch</title>
<path fill="none" stroke="gray" stroke-dasharray="1,5" d="M525.13,-147.19C527.49,-135.95 530.55,-121.36 532.9,-110.15"/>
</g>
<!-- mulle&#45;fetch&#45;&gt;archive -->
<g id="edge8" class="edge">
<title>mulle&#45;fetch&#45;&gt;archive</title>
<path fill="none" stroke="gray" stroke-dasharray="1,5" d="M487.72,-76.31C484.94,-75.52 482.19,-74.74 479.5,-74 416.49,-56.59 342.49,-38.2 300.08,-27.85"/>
</g>
<!-- mulle&#45;fetch&#45;&gt;git&#45;mirror -->
<g id="edge9" class="edge">
<title>mulle&#45;fetch&#45;&gt;git&#45;mirror</title>
<path fill="none" stroke="gray" stroke-dasharray="1,5" d="M553.45,-73.69C564.45,-62.45 578.74,-47.86 589.71,-36.65"/>
</g>
<!-- local -->
<g id="node14" class="node">
<title>local</title>
<polygon fill="none" stroke="gray" points="350.5,-257 347.5,-261 326.5,-261 323.5,-257 296.5,-257 296.5,-221 350.5,-221 350.5,-257"/>
<text text-anchor="middle" x="323.5" y="-235.3" font-family="Times,serif" font-size="14.00" fill="gray">local</text>
</g>
<!-- usr&#45;&gt;local -->
<g id="edge11" class="edge">
<title>usr&#45;&gt;local</title>
<path fill="none" stroke="gray" stroke-dasharray="1,5" d="M352.3,-293.81C346.33,-282.65 338.57,-268.16 332.61,-257.03"/>
</g>
<!-- local&#45;&gt;src2 -->
<g id="edge12" class="edge">
<title>local&#45;&gt;src2</title>
<path fill="none" stroke="gray" stroke-dasharray="1,5" d="M306.8,-220.69C295.95,-209.45 281.87,-194.86 271.05,-183.65"/>
</g>
<!-- home&#45;&gt;user -->
<g id="edge14" class="edge">
<title>home&#45;&gt;user</title>
<path fill="none" stroke="gray" stroke-dasharray="1,5" d="M435.71,-293.81C436.5,-282.65 437.52,-268.16 438.3,-257.03"/>
</g>
</g>
</svg>
