<?xml version="1.0" encoding="UTF-8" standalone="no"?>
<!DOCTYPE svg PUBLIC "-//W3C//DTD SVG 1.1//EN"
 "http://www.w3.org/Graphics/SVG/1.1/DTD/svg11.dtd">
<!-- Generated by graphviz version 2.43.0 (0)
 -->
<!-- Title: G Pages: 1 -->
<svg width="145pt" height="221pt"
 viewBox="0.00 0.00 145.00 221.00" xmlns="http://www.w3.org/2000/svg" xmlns:xlink="http://www.w3.org/1999/xlink">
<g id="graph0" class="graph" transform="scale(1 1) rotate(0) translate(4 217)">
<title>G</title>
<polygon fill="white" stroke="transparent" points="-4,4 -4,-217 141,-217 141,4 -4,4"/>
<!-- mulle&#45;sde -->
<g id="node1" class="node">
<title>mulle&#45;sde</title>
<polygon fill="none" stroke="black" points="25.5,-176.5 25.5,-212.5 111.5,-212.5 111.5,-176.5 25.5,-176.5"/>
<text text-anchor="middle" x="68.5" y="-190.8" font-family="Times,serif" font-size="14.00">mulle&#45;sde</text>
</g>
<!-- mulle&#45;sourcetree -->
<g id="node2" class="node">
<title>mulle&#45;sourcetree</title>
<polygon fill="none" stroke="black" points="0,-88.5 0,-124.5 137,-124.5 137,-88.5 0,-88.5"/>
<text text-anchor="middle" x="68.5" y="-102.8" font-family="Times,serif" font-size="14.00">mulle&#45;sourcetree</text>
</g>
<!-- mulle&#45;sde&#45;&gt;mulle&#45;sourcetree -->
<g id="edge1" class="edge">
<title>mulle&#45;sde&#45;&gt;mulle&#45;sourcetree</title>
<path fill="none" stroke="black" stroke-dasharray="1,5" d="M68.5,-176.1C68.5,-164.25 68.5,-148.32 68.5,-134.79"/>
<polygon fill="black" stroke="black" points="72,-134.58 68.5,-124.58 65,-134.58 72,-134.58"/>
<text text-anchor="middle" x="87" y="-146.8" font-family="Times,serif" font-size="14.00"> runs</text>
</g>
<!-- mulle&#45;fetch -->
<g id="node3" class="node">
<title>mulle&#45;fetch</title>
<polygon fill="none" stroke="dodgerblue" stroke-width="2" points="20,-0.5 20,-36.5 117,-36.5 117,-0.5 20,-0.5"/>
<text text-anchor="middle" x="68.5" y="-14.8" font-family="Times,serif" font-size="14.00" fill="dodgerblue">mulle&#45;fetch</text>
</g>
<!-- mulle&#45;sourcetree&#45;&gt;mulle&#45;fetch -->
<g id="edge2" class="edge">
<title>mulle&#45;sourcetree&#45;&gt;mulle&#45;fetch</title>
<path fill="none" stroke="black" stroke-dasharray="1,5" d="M68.5,-88.1C68.5,-76.25 68.5,-60.32 68.5,-46.79"/>
<polygon fill="black" stroke="black" points="72,-46.58 68.5,-36.58 65,-46.58 72,-46.58"/>
<text text-anchor="middle" x="87" y="-58.8" font-family="Times,serif" font-size="14.00"> runs</text>
</g>
</g>
</svg>
